<svg width="97" height="96" viewBox="0 0 97 96" fill="none" xmlns="http://www.w3.org/2000/svg">
<path d="M82.3607 33.9441V14.0583H62.4947L48.4563 0.00585938L34.418 14.0583H14.552V33.9441L0.513672 47.9965L14.552 62.049V81.9348H34.418L48.4563 95.9872L62.4947 81.9348H82.3607V62.049L96.399 47.9965L82.3607 33.9441ZM17.6427 38.7898C18.4992 39.1066 19.3742 39.4235 20.2121 39.7589C22.167 38.6593 24.0475 37.4479 25.8349 36.106C23.973 35.2301 22.0739 34.4473 20.1376 33.7391V19.6681H33.3567C34.1387 21.8113 35.0324 23.8987 36.0192 25.9488C37.3597 24.1783 38.5699 22.3332 39.6684 20.4135C39.296 19.5376 38.9423 18.643 38.6258 17.7484L46.4269 9.93946C41.3068 27.477 27.6036 41.194 10.0836 46.3192L17.6241 38.7711L17.6427 38.7898ZM12.0385 51.6121C31.2901 45.8533 46.3152 30.6826 51.8822 11.3559L57.747 17.2266C51.1188 35.9197 36.5033 50.6617 17.8847 57.4642L12.0385 51.6121ZM79.0838 57.4269C78.0039 57.0542 76.9241 56.6442 75.8442 56.1969C73.8892 57.2965 72.0088 58.5079 70.2214 59.8498C72.3625 60.8562 74.5409 61.7694 76.7751 62.5522V76.325H62.9416C59.1806 66.205 53.2041 57.0542 45.4401 49.5621C44.0624 50.8294 42.6288 52.0594 41.1579 53.2149C48.6239 60.2971 54.3212 69.0193 57.8401 78.6919L51.9939 84.544C48.9032 74.1817 43.0197 64.8445 34.9952 57.5947C33.3381 58.657 31.6252 59.6448 29.8937 60.5766C37.8624 67.3233 43.69 76.2505 46.669 86.2586L38.5141 78.0956C38.8492 77.1637 39.2216 76.2505 39.5939 75.3372C38.4768 73.4549 37.248 71.6285 35.8888 69.8952C34.8834 72.0012 33.9898 74.1445 33.1892 76.325H20.1748V62.5894C40.0035 55.2464 55.5872 39.5539 62.8298 19.6681H76.7751V33.0682C66.4418 36.7397 57.0953 42.7222 49.4245 50.5498C50.7092 51.9103 51.938 53.3268 53.111 54.7805C60.2791 47.3629 69.067 41.7158 78.8045 38.2866L84.688 44.1759C74.2802 47.1392 64.8965 52.9168 57.5422 60.8562C58.6034 62.4963 59.6088 64.1736 60.5584 65.8882C67.5776 57.8183 76.8682 52.0408 87.2015 49.2825L79.1024 57.3897L79.0838 57.4269Z" fill="white"/>
<path d="M66.2559 35.339C64.5244 36.2522 62.8115 37.24 61.1545 38.3023C59.9442 37.2027 58.7899 36.0659 57.6914 34.8731C58.7527 33.2144 59.7394 31.5184 60.6518 29.7852C62.3833 31.7607 64.2637 33.6244 66.2559 35.339Z" fill="white"/>
<path d="M54.9918 42.6665C53.521 43.822 52.0873 45.0521 50.7096 46.3194C50.3744 45.9839 50.0207 45.6485 49.6855 45.2944C50.9516 43.9152 52.1804 42.4801 53.3348 41.0078C53.8747 41.5669 54.4333 42.126 54.9918 42.6665Z" fill="white"/>
<path d="M64.8243 50.0279C62.7949 51.4629 60.8399 53.0284 58.9967 54.7058L58.5312 54.2026C60.4117 52.5066 62.3667 50.9224 64.4333 49.4688L64.8243 50.0279Z" fill="white"/>
<path d="M77.871 42.9657C75.3575 43.9535 72.9184 45.1276 70.5539 46.4322L70.2188 45.8358C72.6019 44.5126 75.0782 43.3384 77.6103 42.332L77.871 42.9657Z" fill="white"/>
<path d="M46.9115 64.9939L46.3529 65.3853C44.9007 63.3538 43.3554 61.3969 41.6797 59.5519L42.1824 59.0859C43.8767 60.9683 45.4592 62.9252 46.9115 64.9939Z" fill="white"/>
<path d="M54.0609 78.2067L53.4279 78.4489C52.4411 75.9329 51.2681 73.4915 49.9648 71.1245L50.5606 70.7891C51.8826 73.1746 53.0555 75.6534 54.0609 78.188V78.2067Z" fill="white"/>
<path d="M53.9113 17.9172C52.9245 20.4518 51.7702 22.9119 50.4669 25.2975L49.8711 24.962C51.1558 22.6137 52.2915 20.1723 53.2783 17.6562L53.9113 17.8985V17.9172Z" fill="white"/>
<path d="M46.4846 31.6511C45.1999 33.4403 43.8408 35.1736 42.3699 36.8136L41.8672 36.3663C43.3194 34.7449 44.66 33.0303 45.926 31.2598L46.4846 31.6511Z" fill="white"/>
<path d="M37.4532 41.7923C35.5914 43.4882 33.6178 45.0724 31.5511 46.5261L31.1602 45.967C33.1896 44.5319 35.1445 42.9664 37.0064 41.2891L37.4718 41.7923H37.4532Z" fill="white"/>
<path d="M25.7605 50.1745C23.3774 51.4978 20.9011 52.6719 18.369 53.6783L18.127 53.0446C20.6405 52.0569 23.0795 50.8827 25.444 49.5781L25.7792 50.1745H25.7605Z" fill="white"/>
</svg>
