<svg width="186" height="78" viewBox="0 0 186 78" fill="none" xmlns="http://www.w3.org/2000/svg">
<path d="M66.8769 27.5748V11.4176H50.7358L39.3297 0L27.9235 11.4176H11.7824V27.5748L0.376221 38.9924L11.7824 50.41V66.5673H27.9235L39.3297 77.9849L50.7358 66.5673H66.8769V50.41L78.2831 38.9924L66.8769 27.5748ZM14.2936 31.5119C14.9894 31.7694 15.7004 32.0268 16.3812 32.2994C17.9696 31.4059 19.4974 30.4217 20.9497 29.3314C19.4369 28.6197 17.8939 27.9837 16.3207 27.4083V15.9755H27.0612C27.6966 17.7169 28.4227 19.4129 29.2245 21.0786C30.3136 19.6401 31.2969 18.1409 32.1894 16.5812C31.8869 15.8695 31.5995 15.1427 31.3423 14.4158L37.6807 8.07106C33.5207 22.3203 22.3868 33.4654 8.15178 37.6296L14.2784 31.4968L14.2936 31.5119ZM9.74017 41.9301C25.3821 37.251 37.59 24.9249 42.1131 9.2219L46.8783 13.9918C41.4929 29.18 29.6178 41.1578 14.4902 46.6849L9.74017 41.9301ZM64.2145 46.6546C63.3371 46.3518 62.4597 46.0186 61.5823 45.6552C59.9939 46.5486 58.466 47.5329 57.0138 48.6232C58.7534 49.4409 60.5233 50.1829 62.3386 50.8189V62.0093H51.0989C48.0431 53.7868 43.1872 46.3518 36.879 40.2644C35.7595 41.2941 34.5947 42.2935 33.3997 43.2324C39.4658 48.9866 44.0948 56.0734 46.9539 63.9324L42.2039 68.6873C39.6927 60.2679 34.9124 52.6814 28.3924 46.7909C27.0461 47.654 25.6543 48.4566 24.2475 49.2137C30.7221 54.6954 35.457 61.9487 37.8774 70.0804L31.2515 63.4479C31.5238 62.6907 31.8264 61.9488 32.1289 61.2068C31.2213 59.6773 30.2229 58.1934 29.1186 56.7851C28.3017 58.4962 27.5755 60.2376 26.9251 62.0093H16.3509V50.8492C32.4617 44.8829 45.1235 32.1328 51.0081 15.9755H62.3386V26.8631C53.9429 29.8462 46.3488 34.7071 40.1163 41.067C41.1601 42.1724 42.1585 43.3232 43.1115 44.5044C48.9356 38.4776 56.0758 33.8893 63.9876 31.1031L68.7679 35.8882C60.3116 38.2959 52.6873 42.9901 46.7119 49.4409C47.5742 50.7734 48.3911 52.1363 49.1626 53.5294C54.8656 46.9726 62.4143 42.2784 70.8101 40.0373L64.2296 46.6243L64.2145 46.6546Z" fill="white"/>
<path d="M53.7917 28.7114C52.3848 29.4534 50.9931 30.2559 49.6467 31.1191C48.6634 30.2256 47.7255 29.3019 46.833 28.3328C47.6953 26.9851 48.497 25.6071 49.2383 24.1989C50.6452 25.804 52.173 27.3182 53.7917 28.7114Z" fill="white"/>
<path d="M44.64 34.661C43.4449 35.5998 42.2801 36.5993 41.1606 37.629C40.8883 37.3564 40.6009 37.0838 40.3286 36.7961C41.3573 35.6756 42.3557 34.5096 43.2936 33.3133C43.7323 33.7676 44.1861 34.2219 44.64 34.661Z" fill="white"/>
<path d="M52.6268 40.6445C50.9779 41.8105 49.3895 43.0824 47.8919 44.4453L47.5137 44.0364C49.0416 42.6584 50.63 41.3713 52.3091 40.1902L52.6268 40.6445Z" fill="white"/>
<path d="M63.2324 34.9041C61.1902 35.7066 59.2085 36.6606 57.2873 37.7206L57.015 37.236C58.9513 36.1609 60.9633 35.2069 63.0207 34.3892L63.2324 34.9041Z" fill="white"/>
<path d="M38.0738 52.8028L37.62 53.1208C36.4401 51.4702 35.1845 49.8803 33.823 48.3811L34.2314 48.0026C35.608 49.532 36.8939 51.122 38.0738 52.8028Z" fill="white"/>
<path d="M43.8827 63.5389L43.3684 63.7358C42.5667 61.6915 41.6136 59.7078 40.5547 57.7847L41.0388 57.5121C42.1128 59.4504 43.0659 61.4644 43.8827 63.5238V63.5389Z" fill="white"/>
<path d="M43.7624 14.5514C42.9607 16.6108 42.0227 18.6096 40.9638 20.5479L40.4797 20.2753C41.5235 18.3673 42.4463 16.3836 43.2481 14.3394L43.7624 14.5362V14.5514Z" fill="white"/>
<path d="M37.727 25.7118C36.6832 27.1655 35.5789 28.5738 34.3838 29.9063L33.9753 29.5429C35.1553 28.2255 36.2445 26.8324 37.2731 25.3938L37.727 25.7118Z" fill="white"/>
<path d="M30.3895 33.9507C28.8767 35.3286 27.2732 36.6158 25.594 37.7969L25.2764 37.3426C26.9253 36.1766 28.5137 34.9047 30.0264 33.5418L30.4046 33.9507H30.3895Z" fill="white"/>
<path d="M20.8896 40.7652C18.9532 41.8403 16.9413 42.7943 14.8839 43.612L14.6873 43.0972C16.7295 42.2946 18.7112 41.3406 20.6324 40.2806L20.9047 40.7652H20.8896Z" fill="white"/>
<path d="M94.1356 50.4423H93.0011L92.4413 48.8523H89.9907L89.4461 50.4423H88.3115L90.6412 44.2035H91.806L94.1205 50.4423H94.1356ZM92.1691 48.0043L91.3068 45.5209C91.2765 45.4452 91.2463 45.3089 91.2311 45.1272H91.216C91.1858 45.2938 91.1555 45.43 91.1252 45.5209L90.263 48.0043H92.1691Z" fill="white"/>
<path d="M99.4311 44.6593L96.0123 49.5807H99.3857V50.4589H94.5601V49.9895L97.994 45.0984H94.8324V44.2202H99.4311V44.6744V44.6593Z" fill="white"/>
<path d="M99.9896 46.885H104.725C104.679 46.2944 104.467 45.8402 104.074 45.4919C103.696 45.1587 103.197 44.977 102.607 44.977C101.926 44.977 101.336 45.1587 100.852 45.507V44.553C101.366 44.2502 102.002 44.0988 102.728 44.0988C103.696 44.0988 104.452 44.3865 105.012 44.9467C105.572 45.507 105.844 46.2944 105.844 47.2939C105.844 48.2327 105.572 49.0201 105.012 49.6258C104.467 50.2467 103.726 50.5495 102.818 50.5495C101.911 50.5495 101.215 50.2315 100.731 49.6107C100.247 48.9898 99.9896 48.0813 99.9896 46.8699V46.885ZM104.725 47.7481H101.094C101.094 48.3387 101.26 48.8081 101.578 49.1564C101.881 49.5047 102.304 49.6864 102.834 49.6864C103.363 49.6864 103.802 49.5047 104.135 49.1564C104.467 48.8081 104.664 48.3387 104.709 47.7481H104.725Z" fill="white"/>
<path d="M111.804 50.4423H110.594L109.596 48.7766C109.505 48.6252 109.414 48.4889 109.339 48.3829C109.248 48.2769 109.172 48.186 109.082 48.1103C108.991 48.0346 108.9 47.9892 108.794 47.9589C108.688 47.9286 108.567 47.9134 108.446 47.9134H108.023V50.4423H106.994V44.2035H109.051C109.339 44.2035 109.611 44.2338 109.853 44.3095C110.095 44.3852 110.307 44.4912 110.503 44.6275C110.685 44.7638 110.836 44.9455 110.927 45.1575C111.033 45.3695 111.078 45.6118 111.078 45.8995C111.078 46.1266 111.048 46.3235 110.988 46.5052C110.927 46.6869 110.836 46.8535 110.715 46.9897C110.594 47.126 110.443 47.2623 110.277 47.3532C110.11 47.4592 109.914 47.5349 109.702 47.5955C109.808 47.6712 109.914 47.7469 110.004 47.8226C110.095 47.8983 110.171 47.974 110.246 48.0649C110.322 48.1406 110.398 48.2314 110.473 48.3374C110.549 48.4434 110.625 48.5646 110.715 48.7009L111.82 50.4574L111.804 50.4423ZM108.023 45.0363V47.0655H108.885C109.051 47.0655 109.187 47.0352 109.324 46.9897C109.46 46.9443 109.581 46.8686 109.671 46.7777C109.777 46.6869 109.853 46.5658 109.898 46.4446C109.944 46.3235 109.974 46.1569 109.974 45.9903C109.974 45.6875 109.883 45.4603 109.687 45.2938C109.505 45.1272 109.233 45.0363 108.87 45.0363H107.992H108.023Z" fill="white"/>
<path d="M112.531 50.4423V44.2035H114.512C115.117 44.2035 115.586 44.3398 115.949 44.5972C116.313 44.8546 116.479 45.2029 116.479 45.6269C116.479 45.9752 116.373 46.2932 116.176 46.5506C115.98 46.808 115.692 47.0049 115.344 47.1109C115.768 47.1715 116.116 47.338 116.373 47.6106C116.63 47.8832 116.751 48.2314 116.751 48.6554C116.751 49.1854 116.539 49.6246 116.116 49.9577C115.692 50.2909 115.163 50.4574 114.527 50.4574H112.531V50.4423ZM113.559 45.0363V46.808H114.225C114.588 46.808 114.86 46.7172 115.072 46.5506C115.284 46.384 115.375 46.1418 115.375 45.8238C115.375 45.2938 115.012 45.0212 114.301 45.0212H113.544L113.559 45.0363ZM113.559 47.6409V49.6246H114.437C114.815 49.6246 115.117 49.5337 115.329 49.352C115.541 49.1703 115.647 48.928 115.647 48.61C115.647 47.9589 115.193 47.6409 114.301 47.6409H113.559Z" fill="white"/>
<path d="M123.03 50.4423H121.895L121.336 48.8523H118.885L118.34 50.4423H117.206L119.535 44.2035H120.7L123.015 50.4423H123.03ZM121.063 48.0043L120.201 45.5209C120.171 45.4452 120.14 45.3089 120.125 45.1272H120.11C120.08 45.2938 120.05 45.43 120.019 45.5209L119.157 48.0043H121.063Z" fill="white"/>
<path d="M127.552 44.2035L125.51 48.186V50.4574H124.481V48.2163L122.484 44.2186H123.664L124.889 46.8989C124.889 46.8989 124.95 47.0503 125.026 47.2623C125.056 47.1715 125.101 47.0503 125.162 46.8989L126.448 44.2186H127.537L127.552 44.2035Z" fill="white"/>
<path d="M132.498 50.187C132.029 50.4293 131.439 50.5504 130.744 50.5504C129.836 50.5504 129.11 50.2627 128.565 49.6873C128.021 49.1118 127.748 48.3699 127.748 47.431C127.748 46.4316 128.051 45.629 128.671 45.0082C129.291 44.3873 130.063 44.0845 131.001 44.0845C131.606 44.0845 132.105 44.1753 132.498 44.3419V45.3716C132.075 45.1293 131.621 44.993 131.107 44.993C130.426 44.993 129.881 45.205 129.458 45.6442C129.034 46.0833 128.822 46.6587 128.822 47.3704C128.822 48.0821 129.019 48.6121 129.412 49.021C129.806 49.4298 130.32 49.6267 130.955 49.6267C131.545 49.6267 132.06 49.4904 132.483 49.2027V50.1567L132.498 50.187Z" fill="white"/>
<path d="M138.807 50.4423H137.672L137.113 48.8523H134.662L134.117 50.4423H132.983L135.312 44.2035H136.477L138.792 50.4423H138.807ZM136.84 48.0043L135.978 45.5209C135.948 45.4452 135.918 45.3089 135.902 45.1272H135.887C135.857 45.2938 135.827 45.43 135.797 45.5209L134.934 48.0043H136.84Z" fill="white"/>
<path d="M144.948 50.4423H143.814L140.834 45.854C140.758 45.7329 140.698 45.6118 140.652 45.4906H140.622C140.652 45.6269 140.652 45.9146 140.652 46.3538V50.4423H139.654V44.2035H140.864L143.738 48.6857C143.859 48.8674 143.935 49.0037 143.98 49.0643H143.995C143.965 48.8977 143.95 48.6252 143.95 48.2314V44.2035H144.948V50.4423Z" fill="white"/>
<path d="M153.284 44.2035L151.241 48.186V50.4574H150.213V48.2163L148.216 44.2186H149.396L150.621 46.8989C150.621 46.8989 150.682 47.0503 150.757 47.2623C150.788 47.1715 150.833 47.0503 150.894 46.8989L152.179 44.2186H153.269L153.284 44.2035Z" fill="white"/>
<path d="M157.58 50.4423H154.086V44.2035H157.444V45.0818H155.115V46.8535H157.263V47.7317H155.115V49.5791H157.58V50.4574V50.4423Z" fill="white"/>
<path d="M163.51 50.4423H162.299L161.301 48.7766C161.21 48.6252 161.12 48.4889 161.044 48.3829C160.953 48.2769 160.877 48.186 160.787 48.1103C160.696 48.0346 160.605 47.9892 160.499 47.9589C160.393 47.9286 160.272 47.9134 160.151 47.9134H159.728V50.4423H158.699V44.2035H160.756C161.044 44.2035 161.316 44.2338 161.573 44.3095C161.815 44.3852 162.027 44.4912 162.224 44.6275C162.405 44.7638 162.557 44.9455 162.647 45.1575C162.753 45.3695 162.799 45.6118 162.799 45.8995C162.799 46.1266 162.768 46.3235 162.708 46.5052C162.647 46.6869 162.557 46.8535 162.436 46.9897C162.315 47.126 162.163 47.2623 161.997 47.3532C161.83 47.4592 161.634 47.5349 161.422 47.5955C161.528 47.6712 161.634 47.7469 161.725 47.8226C161.815 47.8983 161.891 47.974 161.967 48.0649C162.042 48.1406 162.118 48.2314 162.194 48.3374C162.269 48.4434 162.345 48.5646 162.436 48.7009L163.54 50.4574L163.51 50.4423ZM159.728 45.0363V47.0655H160.59C160.756 47.0655 160.893 47.0352 161.029 46.9897C161.165 46.9443 161.286 46.8686 161.377 46.7777C161.483 46.6869 161.558 46.5658 161.604 46.4446C161.664 46.3083 161.679 46.1569 161.679 45.9903C161.679 45.6875 161.588 45.4603 161.392 45.2938C161.21 45.1272 160.938 45.0363 160.575 45.0363H159.713H159.728Z" fill="white"/>
<path d="M169.032 47.9142C169.032 49.6708 168.2 50.549 166.551 50.549C164.902 50.549 164.161 49.701 164.161 48.0202V44.2042H165.19V47.8082C165.19 49.0348 165.659 49.6405 166.612 49.6405C167.565 49.6405 167.988 49.0499 167.988 47.8688V44.2042H169.017V47.9293L169.032 47.9142ZM165.689 43.6137C165.537 43.6137 165.401 43.5683 165.295 43.4623C165.19 43.3563 165.129 43.2351 165.129 43.0988C165.129 42.9625 165.174 42.8414 165.28 42.7354C165.386 42.6445 165.507 42.5991 165.659 42.5991C165.81 42.5991 165.931 42.6445 166.037 42.7505C166.143 42.8565 166.203 42.9625 166.203 43.0988C166.203 43.2351 166.158 43.3563 166.052 43.4623C165.946 43.5683 165.825 43.6137 165.674 43.6137H165.689ZM167.504 43.6137C167.353 43.6137 167.232 43.5683 167.126 43.4774C167.02 43.3865 166.959 43.2654 166.959 43.114C166.959 42.9625 167.005 42.8565 167.111 42.7505C167.217 42.6597 167.338 42.6143 167.474 42.6143C167.625 42.6143 167.761 42.6597 167.867 42.7657C167.973 42.8565 168.018 42.9777 168.018 43.114C168.018 43.2503 167.973 43.3714 167.867 43.4774C167.761 43.5834 167.64 43.6288 167.489 43.6288L167.504 43.6137Z" fill="white"/>
<path d="M170.211 50.2011V49.1411C170.302 49.2319 170.423 49.3076 170.559 49.3834C170.695 49.4591 170.832 49.5045 170.983 49.5651C171.134 49.6105 171.285 49.6559 171.422 49.6711C171.558 49.6862 171.709 49.7165 171.83 49.7165C172.269 49.7165 172.586 49.6408 172.798 49.5045C173.01 49.3531 173.116 49.1562 173.116 48.8685C173.116 48.7171 173.086 48.5959 173.01 48.4899C172.934 48.3839 172.844 48.2779 172.707 48.1871C172.586 48.0962 172.435 48.0054 172.254 47.9297C172.087 47.8539 171.891 47.7631 171.694 47.6722C171.482 47.5662 171.285 47.4451 171.104 47.3239C170.922 47.2028 170.756 47.0817 170.635 46.9454C170.499 46.8091 170.393 46.6425 170.317 46.476C170.242 46.2942 170.196 46.0974 170.196 45.8551C170.196 45.5674 170.257 45.31 170.393 45.098C170.529 44.886 170.695 44.7043 170.922 44.568C171.134 44.4317 171.391 44.3257 171.664 44.25C171.936 44.1743 172.223 44.144 172.511 44.144C173.161 44.144 173.645 44.2197 173.933 44.3711V45.4008C173.585 45.1434 173.116 45.0223 172.571 45.0223C172.42 45.0223 172.269 45.0223 172.117 45.0677C171.966 45.1131 171.83 45.1434 171.709 45.204C171.588 45.2645 171.497 45.3554 171.422 45.4614C171.346 45.5674 171.316 45.6885 171.316 45.84C171.316 45.9762 171.346 46.0974 171.406 46.2034C171.467 46.3094 171.543 46.4002 171.664 46.476C171.785 46.5517 171.906 46.6425 172.072 46.7182C172.239 46.794 172.42 46.8848 172.632 46.9757C172.844 47.0817 173.055 47.2028 173.252 47.3391C173.449 47.4602 173.615 47.5965 173.766 47.7479C173.918 47.8994 174.024 48.0659 174.114 48.2477C174.205 48.4294 174.235 48.6414 174.235 48.8836C174.235 49.2016 174.175 49.4742 174.039 49.6862C173.918 49.8982 173.736 50.0799 173.524 50.2162C173.313 50.3525 173.055 50.4585 172.783 50.5191C172.496 50.5796 172.208 50.6099 171.891 50.6099C171.785 50.6099 171.664 50.6099 171.512 50.5796C171.361 50.5645 171.21 50.5342 171.043 50.5039C170.877 50.4736 170.726 50.4433 170.59 50.3979C170.453 50.3525 170.332 50.3071 170.242 50.2465L170.211 50.2011Z" fill="white"/>
<path d="M179.364 45.0818H177.579V50.4423H176.55V45.0818H174.765V44.2035H179.379V45.0818H179.364Z" fill="white"/>
<path d="M185.066 47.9142C185.066 49.6708 184.234 50.549 182.585 50.549C180.936 50.549 180.195 49.701 180.195 48.0202V44.2042H181.224V47.8082C181.224 49.0348 181.693 49.6405 182.646 49.6405C183.599 49.6405 184.022 49.0499 184.022 47.8688V44.2042H185.051V47.9293L185.066 47.9142ZM181.723 43.6137C181.572 43.6137 181.436 43.5683 181.33 43.4623C181.224 43.3563 181.163 43.2351 181.163 43.0988C181.163 42.9625 181.209 42.8414 181.315 42.7354C181.42 42.6445 181.541 42.5991 181.693 42.5991C181.844 42.5991 181.965 42.6445 182.071 42.7505C182.177 42.8565 182.237 42.9625 182.237 43.0988C182.237 43.2351 182.192 43.3563 182.086 43.4623C181.98 43.5683 181.859 43.6137 181.708 43.6137H181.723ZM183.538 43.6137C183.387 43.6137 183.266 43.5683 183.16 43.4774C183.054 43.3865 182.994 43.2654 182.994 43.114C182.994 42.9625 183.039 42.8565 183.145 42.7505C183.251 42.6597 183.372 42.6143 183.508 42.6143C183.659 42.6143 183.795 42.6597 183.901 42.7657C184.007 42.8565 184.053 42.9777 184.053 43.114C184.053 43.2503 184.007 43.3714 183.901 43.4774C183.795 43.5834 183.674 43.6288 183.523 43.6288L183.538 43.6137Z" fill="white"/>
<path d="M96.7839 61.1492H95.6493L92.6692 56.561C92.5936 56.4398 92.5331 56.3187 92.4877 56.1975H92.4574C92.4877 56.3338 92.4877 56.6215 92.4877 57.0607V61.1492H91.4893V54.9104H92.6995L95.5737 59.3926C95.6947 59.5744 95.7704 59.7106 95.8157 59.7712H95.8309C95.8006 59.6046 95.7855 59.3321 95.7855 58.9384V54.9104H96.7839V61.1492Z" fill="white"/>
<path d="M97.9175 57.5753H102.652C102.607 56.9847 102.395 56.5304 102.002 56.1821C101.624 55.849 101.125 55.6673 100.535 55.6673C99.8538 55.6673 99.2638 55.849 98.7798 56.1973V55.2433C99.2941 54.9404 99.9295 54.789 100.656 54.789C101.624 54.789 102.38 55.0767 102.94 55.637C103.5 56.1973 103.772 56.9847 103.772 57.9841C103.772 58.923 103.5 59.7104 102.94 60.3161C102.395 60.9369 101.654 61.2398 100.746 61.2398C99.8387 61.2398 99.1428 60.9218 98.6587 60.3009C98.1747 59.6801 97.9175 58.7715 97.9175 57.5601V57.5753ZM102.652 58.4384H99.0218C99.0218 59.029 99.1882 59.4984 99.5059 59.8467C99.8084 60.1949 100.232 60.3767 100.761 60.3767C101.291 60.3767 101.73 60.1949 102.062 59.8467C102.395 59.4984 102.592 59.029 102.637 58.4384H102.652Z" fill="white"/>
<path d="M107.477 61.2558C107.023 61.2558 106.615 61.1801 106.252 61.0287C105.889 60.8772 105.571 60.6652 105.314 60.3775C105.057 60.1049 104.86 59.7718 104.709 59.3781C104.572 58.9995 104.497 58.5604 104.497 58.091C104.497 57.5913 104.572 57.137 104.709 56.7281C104.845 56.3193 105.057 55.971 105.329 55.6833C105.601 55.3956 105.919 55.1684 106.297 55.017C106.675 54.8656 107.099 54.7747 107.568 54.7747C108.006 54.7747 108.4 54.8504 108.763 55.0019C109.126 55.1533 109.428 55.3653 109.686 55.653C109.943 55.9256 110.139 56.2587 110.276 56.6524C110.412 57.031 110.487 57.4701 110.487 57.9244C110.487 58.5453 110.381 59.0752 110.185 59.5447C109.973 60.0141 109.686 60.3775 109.307 60.6652L111.123 61.9675H109.549L108.43 61.1044C108.279 61.1498 108.127 61.1801 107.976 61.1952C107.81 61.2255 107.643 61.2255 107.477 61.2255V61.2558ZM107.522 55.7136C107.235 55.7136 106.978 55.7741 106.736 55.8801C106.494 55.9861 106.297 56.1527 106.131 56.3496C105.964 56.5616 105.828 56.8038 105.737 57.0764C105.647 57.3641 105.601 57.6821 105.601 58.0304C105.601 58.3787 105.647 58.6967 105.737 58.9692C105.828 59.257 105.964 59.4992 106.115 59.6961C106.282 59.8929 106.479 60.0595 106.705 60.1655C106.932 60.2715 107.19 60.3321 107.477 60.3321C107.779 60.3321 108.037 60.2867 108.279 60.1807C108.521 60.0747 108.717 59.9232 108.884 59.7264C109.05 59.5295 109.186 59.2872 109.262 58.9995C109.353 58.7118 109.398 58.3938 109.398 58.0304C109.398 57.667 109.353 57.3338 109.262 57.031C109.171 56.7433 109.05 56.501 108.884 56.3041C108.717 56.1073 108.521 55.9559 108.294 55.8499C108.067 55.7439 107.795 55.6984 107.507 55.6984L107.522 55.7136Z" fill="white"/>
<path d="M115.087 61.1492H111.638V54.9104H112.667V60.2861H115.087V61.1643V61.1492Z" fill="white"/>
<path d="M116.509 54.334C116.358 54.334 116.237 54.2886 116.131 54.1826C116.025 54.0766 115.98 53.9706 115.98 53.8192C115.98 53.6677 116.025 53.5617 116.131 53.4709C116.237 53.38 116.358 53.3346 116.509 53.3346C116.66 53.3346 116.781 53.38 116.887 53.4709C116.993 53.5617 117.039 53.6829 117.039 53.8192C117.039 53.9554 116.993 54.0766 116.887 54.1826C116.781 54.2886 116.66 54.334 116.509 54.334ZM117.054 61.1482H115.995V54.9094H117.054V61.1482Z" fill="white"/>
<path d="M122.937 54.9104L120.895 58.8929V61.1643H119.867V58.9232L117.87 54.9255H119.05L120.275 57.6058C120.275 57.6058 120.336 57.7572 120.411 57.9692C120.441 57.8784 120.487 57.7572 120.547 57.6058L121.833 54.9255H122.922L122.937 54.9104Z" fill="white"/>
<path d="M128.082 54.9104L126.039 58.8929V61.1643H125.011V58.9232L123.014 54.9255H124.194L125.419 57.6058C125.419 57.6058 125.48 57.7572 125.555 57.9692C125.585 57.8784 125.631 57.7572 125.691 57.6058L126.977 54.9255H128.066L128.082 54.9104Z" fill="white"/>
<path d="M133.315 61.1492H132.181L131.621 59.5592H129.17L128.626 61.1492H127.491L129.821 54.9104H130.986L133.3 61.1492H133.315ZM131.349 58.7112L130.486 56.2278C130.456 56.1521 130.426 56.0158 130.411 55.8341H130.396C130.365 56.0007 130.335 56.137 130.305 56.2278L129.443 58.7112H131.349Z" fill="white"/>
<path d="M137.552 55.7887H135.767V61.1492H134.738V55.7887H132.953V54.9104H137.567V55.7887H137.552Z" fill="white"/>
<path d="M146.038 61.1492H144.904L144.344 59.5592H141.894L141.349 61.1492H140.214L142.544 54.9104H143.709L146.023 61.1492H146.038ZM144.072 58.7112L143.21 56.2278C143.179 56.1521 143.149 56.0158 143.134 55.8341H143.119C143.089 56.0007 143.058 56.137 143.028 56.2278L142.166 58.7112H144.072Z" fill="white"/>
<path d="M151.651 60.7265C151.001 61.0747 150.274 61.2565 149.488 61.2565C148.565 61.2565 147.824 60.9687 147.249 60.3933C146.674 59.8179 146.387 59.0608 146.387 58.1068C146.387 57.1528 146.704 56.3502 147.325 55.7294C147.945 55.1085 148.746 54.8057 149.7 54.8057C150.395 54.8057 150.97 54.9117 151.454 55.1085V56.1685C150.97 55.8505 150.411 55.6839 149.745 55.6839C149.079 55.6839 148.535 55.8959 148.111 56.3351C147.688 56.7742 147.476 57.3345 147.476 58.0311C147.476 58.7276 147.657 59.3182 148.02 59.727C148.383 60.1359 148.883 60.3479 149.503 60.3479C149.926 60.3479 150.305 60.2722 150.622 60.1056V58.6216H149.306V57.7434H151.651V60.7113V60.7265Z" fill="white"/>
<path d="M156.491 61.1492H152.997V54.9104H156.355V55.7887H154.026V57.5604H156.174V58.4387H154.026V60.2861H156.491V61.1643V61.1492Z" fill="white"/>
<path d="M162.89 61.1492H161.756L158.776 56.561C158.7 56.4398 158.64 56.3187 158.594 56.1975H158.564C158.594 56.3338 158.594 56.6215 158.594 57.0607V61.1492H157.596V54.9104H158.806L161.68 59.3926C161.801 59.5744 161.877 59.7106 161.922 59.7712H161.937C161.907 59.6046 161.892 59.3321 161.892 58.9384V54.9104H162.89V61.1492Z" fill="white"/>
<path d="M168.442 55.7887H166.657V61.1492H165.628V55.7887H163.843V54.9104H168.457V55.7887H168.442Z" fill="white"/>
<path d="M172.815 61.1492H169.365V54.9104H170.394V60.2861H172.815V61.1643V61.1492Z" fill="white"/>
<path d="M174.221 54.334C174.07 54.334 173.949 54.2886 173.843 54.1826C173.737 54.0766 173.692 53.9706 173.692 53.8192C173.692 53.6677 173.737 53.5617 173.843 53.4709C173.949 53.38 174.07 53.3346 174.221 53.3346C174.373 53.3346 174.494 53.38 174.6 53.4709C174.705 53.5617 174.751 53.6829 174.751 53.8192C174.751 53.9554 174.705 54.0766 174.6 54.1826C174.494 54.2886 174.373 54.334 174.221 54.334ZM174.766 61.1482H173.707V54.9094H174.766V61.1482Z" fill="white"/>
<path d="M180.65 54.9104L178.607 58.8929V61.1643H177.579V58.9232L175.582 54.9255H176.762L177.987 57.6058C177.987 57.6058 178.048 57.7572 178.123 57.9692C178.154 57.8784 178.199 57.7572 178.259 57.6058L179.545 54.9255H180.635L180.65 54.9104Z" fill="white"/>
<path d="M181.967 54.334C181.816 54.334 181.695 54.2886 181.589 54.1826C181.483 54.0766 181.438 53.9706 181.438 53.8192C181.438 53.6677 181.483 53.5617 181.589 53.4709C181.695 53.38 181.816 53.3346 181.967 53.3346C182.118 53.3346 182.239 53.38 182.345 53.4709C182.451 53.5617 182.497 53.6829 182.497 53.8192C182.497 53.9554 182.451 54.0766 182.345 54.1826C182.239 54.2886 182.118 54.334 181.967 54.334ZM182.512 61.1482H181.453V54.9094H182.512V61.1482Z" fill="white"/>
<path d="M104.785 39.0252L103.772 34.7853H96.904L95.8148 39.0252H88.3115L96.2384 15.978H104.846L112.319 39.0252H104.785ZM100.414 20.9903H100.247C100.232 21.2477 100.156 21.6717 100.02 22.2622C99.8992 22.8528 99.2487 25.3816 98.0839 29.8487H102.486L100.883 23.5797C100.656 22.656 100.504 21.7928 100.414 20.9903Z" fill="white"/>
<path d="M126.781 31.029V39.0395H119.837V31.135L112.742 15.9923H120.715L123.211 23.2457C123.377 23.7454 123.498 24.1694 123.574 24.5328C123.649 24.8962 123.725 25.2596 123.801 25.6382H123.861C123.997 24.6691 124.149 23.9119 124.33 23.3668L126.781 15.9923H134.118L126.781 31.0441V31.029Z" fill="white"/>
<path d="M152.482 39.0252L144.359 27.8953C143.724 27.017 143.194 26.2296 142.786 25.5179H142.725C142.786 26.6536 142.816 27.9256 142.816 29.349V39.0252H136.387V15.978H142.937L150.728 26.5628C150.818 26.6991 150.939 26.8656 151.076 27.0625C151.212 27.2593 151.348 27.4562 151.499 27.653C151.635 27.8499 151.771 28.0619 151.892 28.2436C152.013 28.4405 152.104 28.607 152.18 28.7585H152.24C152.18 28.289 152.15 27.4713 152.15 26.3205V15.978H158.579V39.0252H152.498H152.482Z" fill="white"/>
<path d="M177.534 39.0252L176.521 34.7853H169.653L168.564 39.0252H161.06L168.987 15.978H177.595L185.068 39.0252H177.534ZM173.162 20.9903H172.996C172.981 21.2477 172.905 21.6717 172.769 22.2622C172.633 22.8528 171.998 25.3816 170.833 29.8487H175.235L173.631 23.5797C173.405 22.656 173.253 21.7928 173.162 20.9903Z" fill="white"/>
</svg>
